<svg height="512pt" viewBox="0 0 512 512" width="512pt" xmlns="http://www.w3.org/2000/svg"><g fill="#dbeaff"><path d="m388.101562 123.898438h16.5v115.601562h-16.5zm0 0"/><path d="m223 57.800781h82.601562v16.5h-82.601562zm0 0"/><path d="m223 363.398438h82.601562v16.5h-82.601562zm0 0"/></g><path d="m479 132.101562h-165.199219c-9.101562 0-16.5-7.402343-16.5-16.5v-99.101562c0-9.101562 7.398438-16.5 16.5-16.5h165.199219c9.101562 0 16.5 7.398438 16.5 16.5v99.101562c0 9.097657-7.398438 16.5-16.5 16.5zm0 0" fill="#c8c5c9"/><path d="m214.699219 512h-198.199219c-9.101562 0-16.5-7.398438-16.5-16.5v-462.5c0-18.199219 14.800781-33 33-33h165.199219c18.199219 0 33 14.800781 33 33v462.5c0 9.101562-7.398438 16.5-16.5 16.5zm0 0" fill="#eceaec"/><path d="m132.101562 99.101562h-33c-4.601562 0-8.300781-3.703124-8.300781-8.300781v-16.5c0-4.601562 3.699219-8.300781 8.300781-8.300781h33c4.597657 0 8.296876 3.699219 8.296876 8.300781v16.5c0 4.597657-3.699219 8.300781-8.296876 8.300781zm0 0" fill="#dbeaff"/><path d="m16.5 429.398438v-425c-9.800781 5.703124-16.5 16.402343-16.5 28.601562v462.5c0 9.101562 7.398438 16.5 16.5 16.5h198.199219c9.101562 0 16.5-7.398438 16.5-16.5h-148.597657c-36.5 0-66.101562-29.601562-66.101562-66.101562zm0 0" fill="#dad8db"/><path d="m0 289h231.199219v16.5h-231.199219zm0 0" fill="#dad8db"/><path d="m0 289h16.5v16.5h-16.5zm0 0" fill="#c8c5c9"/><path d="m0 181.699219h24.800781v16.5h-24.800781zm0 0" fill="#9b959d"/><path d="m0 256h24.800781v16.5h-24.800781zm0 0" fill="#9b959d"/><path d="m24.800781 272.5c-4.601562 0-8.300781-3.699219-8.300781-8.300781 0-4.597657 3.699219-8.300781 8.300781-8.300781v-57.796876c-4.601562 0-8.300781-3.703124-8.300781-8.300781 0-4.601562 3.699219-8.300781 8.300781-8.300781 9.097657 0 16.5 7.398438 16.5 16.5v58c0 9.101562-7.402343 16.5-16.5 16.5zm0 0" fill="#857e87"/><path d="m0 322.101562h24.800781v16.5h-24.800781zm0 0" fill="#9b959d"/><path d="m0 396.398438h24.800781v16.5h-24.800781zm0 0" fill="#9b959d"/><path d="m24.800781 412.898438c-4.601562 0-8.300781-3.699219-8.300781-8.296876 0-4.601562 3.699219-8.300781 8.300781-8.300781v-57.800781c-4.601562 0-8.300781-3.699219-8.300781-8.300781 0-4.597657 3.699219-8.300781 8.300781-8.300781 9.097657 0 16.5 7.402343 16.5 16.5v57.800781c0 9.300781-7.402343 16.699219-16.5 16.699219zm0 0" fill="#857e87"/><path d="m132.101562 99.101562h-33c-4.601562 0-8.300781-3.703124-8.300781-8.300781v-8.300781h49.5v8.300781c.097657 4.597657-3.601562 8.300781-8.199219 8.300781zm0 0" fill="#c3ddff"/><path d="m495.5 512h-198.199219c-9.101562 0-16.5-7.398438-16.5-16.5v-247.800781c0-9.097657 7.398438-16.5 16.5-16.5h198.199219c9.101562 0 16.5 7.402343 16.5 16.5v247.699219c0 9.203124-7.398438 16.601562-16.5 16.601562zm0 0" fill="#eceaec"/><path d="m297.300781 437.699219v-206.5c-9.101562 0-16.5 7.402343-16.5 16.5v247.699219c0 9.101562 7.398438 16.5 16.5 16.5h198.199219c9.101562 0 16.5-7.398438 16.5-16.5h-156.898438c-31.902343.101562-57.800781-25.796876-57.800781-57.699219zm0 0" fill="#dad8db"/><path d="m479 272.5h-24.800781c-4.597657 0-8.300781-3.699219-8.300781-8.300781 0-4.597657 3.703124-8.300781 8.300781-8.300781h24.800781c4.601562 0 8.300781 3.703124 8.300781 8.300781 0 4.601562-3.800781 8.300781-8.300781 8.300781zm0 0" fill="#a4ccff"/><path d="m462.5 404.601562c0 36.503907-29.59375 66.097657-66.101562 66.097657-36.503907 0-66.097657-29.59375-66.097657-66.097657 0-36.507812 29.59375-66.101562 66.097657-66.101562 36.507812 0 66.101562 29.59375 66.101562 66.101562zm0 0" fill="#dad8db"/><path d="m445.898438 404.601562c0 27.335938-22.160157 49.5-49.5 49.5-27.335938 0-49.5-22.164062-49.5-49.5 0-27.339843 22.164062-49.5 49.5-49.5 27.339843 0 49.5 22.160157 49.5 49.5zm0 0" fill="#fff"/><path d="m280.800781 289h231.199219v16.5h-231.199219zm0 0" fill="#dad8db"/><path d="m280.800781 289h16.5v16.5h-16.5zm0 0" fill="#c8c5c9"/><path d="m313.800781 272.5v16.5c0 4.601562 3.699219 8.300781 8.300781 8.300781h33c4.597657 0 8.296876-3.699219 8.296876-8.300781v-16.5c0-4.601562-3.699219-8.300781-8.296876-8.300781h-33c-4.601562.101562-8.300781 3.800781-8.300781 8.300781zm0 0" fill="#c8c5c9"/><path d="m429.398438 280.800781c0 9.113281-7.386719 16.5-16.5 16.5-9.109376 0-16.5-7.386719-16.5-16.5s7.390624-16.5 16.5-16.5c9.113281 0 16.5 7.386719 16.5 16.5zm0 0" fill="#fff"/><path d="m401.101562 419c-8.703124-3.199219-15.800781-10.300781-19-19-1.5-4-2.203124-7.898438-2.203124-11.601562 0-5.296876-7.097657-7.296876-10.199219-3.097657-5.300781 7.199219-7.699219 16.699219-5.5 26.800781 2.699219 12.199219 12.601562 22.097657 24.800781 24.796876 10.101562 2.203124 19.5-.199219 26.800781-5.5 4.300781-3.097657 2.199219-10.199219-3.101562-10.199219-3.800781-.097657-7.597657-.699219-11.597657-2.199219zm0 0" fill="#dbeaff"/><path d="m313.800781 90.800781v-90.800781c-9.101562 0-16.5 7.398438-16.5 16.5v99.101562c0 9.097657 7.398438 16.5 16.5 16.5h165.199219c9.101562 0 16.5-7.402343 16.5-16.5h-156.898438c-13.703124 0-24.800781-11.101562-24.800781-24.800781zm0 0" fill="#b6b1b7"/><path d="m404.601562 99.101562h-66.101562c-4.601562 0-8.300781-3.703124-8.300781-8.300781v-49.5c0-4.601562 3.699219-8.300781 8.300781-8.300781h66.101562c4.597657 0 8.296876 3.699219 8.296876 8.300781v49.5c0 4.597657-3.699219 8.300781-8.296876 8.300781zm0 0" fill="#dbeaff"/><path d="m379.898438 82.601562c-18.199219 0-33-14.800781-33-33v-16.601562h-8.296876c-4.601562 0-8.300781 3.699219-8.300781 8.300781v49.5c0 4.597657 3.699219 8.300781 8.300781 8.300781h66.097657c4.601562 0 8.300781-3.703124 8.300781-8.300781v-8.300781zm0 0" fill="#c3ddff"/><path d="m454.199219 33v-33h-16.5v132.101562h16.5v-66c0-4.601562 3.699219-8.300781 8.300781-8.300781h33v-16.5h-33c-4.601562 0-8.300781-3.699219-8.300781-8.300781zm0 0" fill="#b6b1b7"/><path d="m437.699219 115.601562h16.5v16.5h-16.5zm0 0" fill="#9b959d"/></svg>