<svg height="512" viewBox="0 0 58 60" width="512" xmlns="http://www.w3.org/2000/svg"><g id="Page-1" fill="none" fill-rule="evenodd"><g id="028---Audio-Book" fill-rule="nonzero"><path id="Shape" d="m55 31h-2v-5c0-13.254834-10.745166-24-24-24s-24 10.745166-24 24v5h-2v-5c0-14.3594035 11.6405965-26 26-26s26 11.6405965 26 26z" fill="#95a4a4"/><path id="Shape" d="m54 60c-.5522847 0-1-.4477153-1-1v-14c0-.5522847.4477153-1 1-1s1 .4477153 1 1v14c0 .5522847-.4477153 1-1 1z" fill="#3180bc"/><path id="Shape" d="m50 29h4c2.209139 0 4 1.790861 4 4v8c0 2.209139-1.790861 4-4 4h-50c-2.209139 0-4-1.790861-4-4v-8c0-2.209139 1.790861-4 4-4z" fill="#4397d5"/><path id="Shape" d="m21 17v42h-6c-1.1032019-.0032948-1.9967052-.8967981-2-2v-38c.0032948-1.1032019.8967981-1.9967052 2-2z" fill="#e04c34"/><path id="Shape" d="m45 19v38c-.0032948 1.1032019-.8967981 1.9967052-2 2h-24v-42h24c1.1032019.0032948 1.9967052.8967981 2 2z" fill="#ba3a23"/><rect id="Rectangle-path" fill="#ed9a00" height="10" rx="1" width="16" x="24" y="23"/><path id="Shape" d="m40 46h-16c-.5522847 0-1-.4477153-1-1s.4477153-1 1-1h16c.5522847 0 1 .4477153 1 1s-.4477153 1-1 1z" fill="#fff"/><path id="Shape" d="m36 50h-8c-.5522847 0-1-.4477153-1-1s.4477153-1 1-1h8c.5522847 0 1 .4477153 1 1s-.4477153 1-1 1z" fill="#fff"/><g fill="#393f4b"><rect id="Rectangle-path" height="20" rx="2" width="5" x="8" y="27"/><rect id="Rectangle-path" height="20" rx="2" width="5" x="45" y="27"/></g></g></g></svg>