<svg height="512" viewBox="0 0 64 64" width="512" xmlns="http://www.w3.org/2000/svg"><path d="m9 17h10a4 4 0 0 1 4 4v38a2 2 0 0 1 -2 2h-14a2 2 0 0 1 -2-2v-38a4 4 0 0 1 4-4z" fill="#eb8cb3"/><path d="m19 29a5 5 0 0 0 -10 0h-4v16h18v-16z" fill="#87cee9"/><rect fill="#eb8cb3" height="24" rx="4" width="32" x="27" y="37"/><path d="m27 43h32v12h-32z" fill="#87cee9"/><path d="m31 33h24v4h-24z" fill="#e05a97"/><path d="m31 46h5v2h-5z" fill="#195c85"/><path d="m31 50h10v2h-10z" fill="#195c85"/><path d="m45 43h10v12h-10z" fill="#76b2c4"/><path d="m31 33s-1-6 8-6 14-3 14-3 4 4 2 9z" fill="#f4f4e6"/><path d="m9 13h10v4h-10z" fill="#e05a97"/><path d="m12 9h4v4h-4z" fill="#2d75bb"/><path d="m8 3h12v6h-12z" fill="#e05a97"/><path d="m11 3h2v3h-2z" fill="#bf407f"/><path d="m15 3h2v3h-2z" fill="#bf407f"/><path d="m31 11h3a6 6 0 0 1 6 6v2a0 0 0 0 1 0 0h-3a6 6 0 0 1 -6-6v-2a0 0 0 0 1 0 0z" fill="#55b56a"/><path d="m36.5 13.798h2v6.403h-2z" fill="#c8d952" transform="matrix(.625 -.781 .781 .625 .799 35.663)"/><path d="m50 14h3a0 0 0 0 1 0 0v2a6 6 0 0 1 -6 6h-3a0 0 0 0 1 0 0v-2a6 6 0 0 1 6-6z" fill="#55b56a" transform="matrix(-1 0 0 -1 97 36)"/><path d="m43.298 19h6.403v2h-6.403z" fill="#c8d952" transform="matrix(.781 -.625 .625 .781 -2.3 33.446)"/><g fill="#195c85"><path d="m8 32h2v2h-2z"/><path d="m12 32h4v2h-4z"/><path d="m18 32h2v2h-2z"/><path d="m8 36h12v2h-12z"/><path d="m8 40h12v2h-12z"/></g><path d="m12 58h-4v-6h2v4h2z" fill="#f4f4e6"/></svg>