<svg height="512" viewBox="0 0 58 58" width="512" xmlns="http://www.w3.org/2000/svg"><g id="Page-1" fill="none" fill-rule="evenodd"><g id="026---Jacket" fill-rule="nonzero"><path id="Shape" d="m43 52v4c-.0032948 1.1032019-.8967981 1.9967052-2 2h-24c-1.1032019-.0032948-1.9967052-.8967981-2-2v-4z" fill="#5d4c72"/><g fill="#3d324c"><path id="Shape" d="m20 57v1h-2v-1c0-.5522847.4477153-1 1-1s1 .4477153 1 1z"/><path id="Shape" d="m24 57v1h-2v-1c0-.5522847.4477153-1 1-1s1 .4477153 1 1z"/><path id="Shape" d="m28 57v1h-2v-1c0-.5522847.4477153-1 1-1s1 .4477153 1 1z"/><path id="Shape" d="m32 57v1h-2v-1c0-.5522847.4477153-1 1-1s1 .4477153 1 1z"/><path id="Shape" d="m36 57v1h-2v-1c0-.5522847.4477153-1 1-1s1 .4477153 1 1z"/><path id="Shape" d="m40 57v1h-2v-1c0-.5522847.4477153-1 1-1s1 .4477153 1 1z"/></g><path id="Shape" d="m44 12.02v40.98c0 .5522847-.4477153 1-1 1h-12v-38.07c.1928618.04848.3911484.0720055.59.07.2752591.0008254.5488235-.04308.81-.13z" fill="#802f34"/><path id="Shape" d="m27 15.93v38.07h-12c-.5522847 0-1-.4477153-1-1v-40.98l11.6 3.85c.2611765.08692.5347409.1308254.81.13z" fill="#802f34"/><path id="Shape" d="m14 12.02v16.98l-4.78 20.38h-.01l-8.58-1.95c3.97-23.11 9.66-32.74 12.14-36.01.2416784.2116879.5241477.3716404.83.47z" fill="#5d4c72"/><path id="Shape" d="m.63 47.43c-.21 1.22-.41 2.47-.61 3.77-.14451346 1.0263918.51282965 1.9951079 1.52 2.24l4.34 1.07c.52652453.132614 1.08418889.0499626 1.54961466-.2296682.46542578-.2796308.80024627-.7331901.93038534-1.2603318l.85-3.64z" fill="#3d324c"/><path id="Shape" d="m57.37 47.43-8.58 1.95h-.01l-4.78-20.38v-16.98l.4-.13c.3058523-.0983596.5883216-.2583121.83-.47 2.48 3.27 8.17 12.9 12.14 36.01z" fill="#5d4c72"/><path id="Shape" d="m57.37 47.43c.21 1.22.41 2.47.61 3.77.1445135 1.0263918-.5128296 1.9951079-1.52 2.24l-4.34 1.07c-.5265245.132614-1.0841889.0499626-1.5496147-.2296682-.4654257-.2796308-.8002462-.7331901-.9303853-1.2603318l-.85-3.64z" fill="#3d324c"/><path id="Shape" d="m42 7.18v.06l-3.5 1.15c-1.04-1.13-3.86-3.39-9.5-3.39s-8.46 2.26-9.5 3.39l-3.56-1.17v-.02c-.06-6.9 12-7.19 13-7.2h.06c.96.01 13.03.29 13 7.18z" fill="#e64c3c"/><path id="Shape" d="m18 49c-.5522847 0-1-.4477153-1-1v-8c0-.5522847.4477153-1 1-1s1 .4477153 1 1v8c0 .5522847-.4477153 1-1 1z" fill="#ff5364"/><path id="Shape" d="m40 49c-.5522847 0-1-.4477153-1-1v-8c0-.5522847.4477153-1 1-1s1 .4477153 1 1v8c0 .5522847-.4477153 1-1 1z" fill="#ff5364"/><path id="Shape" d="m29 13.42c.0008254.2752591-.04308.5488235-.13.81-.2847973.8536233-.993177 1.4976049-1.87 1.7l-.59.07c-.2752591.0008254-.5488235-.04308-.81-.13l-11.6-3.85-.4-.13c-.3058523-.0983596-.5883216-.2583121-.83-.47-.8276138-.6730089-1.150477-1.78907917-.81-2.8.3542593-1.05746673 1.3447711-1.77015205 2.46-1.77.2752591-.00082536.5488235.04308005.81.13l.71.24 3.56 1.17 7.73 2.57c1.0574667.3542593 1.7701521 1.3447711 1.77 2.46z" fill="#d75e72"/><path id="Shape" d="m31 15.93v38.07h-4v-38.07c.876823-.2023951 1.5852027-.8463767 1.87-1.7.08692-.2611765.1308254-.5347409.13-.81-.0008254.2752591.04308.5488235.13.81.2847973.8536233.993177 1.4976049 1.87 1.7z" fill="#f0c419"/><path id="Shape" d="m45.23 11.42c-.2416784.2116879-.5241477.3716404-.83.47l-.4.13-11.6 3.85c-.2611765.08692-.5347409.1308254-.81.13-.1988516.0020055-.3971382-.02152-.59-.07-.876823-.2023951-1.5852027-.8463767-1.87-1.7-.08692-.2611765-.1308254-.5347409-.13-.81-.0001521-1.1152289.7125333-2.1057407 1.77-2.46l7.73-2.57 3.5-1.15.77-.26c.2611765-.08691995.5347409-.13082536.81-.13 1.1152289-.00015205 2.1057407.71253327 2.46 1.77.340477 1.01092083.0176138 2.1269911-.81 2.8z" fill="#d75e72"/><path id="Shape" d="m38.5 8.39-7.73 2.57c-1.0574667.3542593-1.7701521 1.3447711-1.77 2.46.0001521-1.1152289-.7125333-2.1057407-1.77-2.46l-7.73-2.57c1.04-1.13 3.86-3.39 9.5-3.39s8.46 2.26 9.5 3.39z" fill="#802f34"/><path id="Shape" d="m20 28c-.5522847 0-1-.4477153-1-1 0-7.251 2.127-8.681 2.553-8.895.4828285-.2473329 1.0748051-.0645887 1.334198.4118694s.0915885 1.0728417-.378198 1.3441306c-.109.09-1.509 1.358-1.509 7.139 0 .5522847-.4477153 1-1 1z" fill="#f9eab0"/><path id="Shape" d="m21 27h-2c-.5522847 0-1-.4477153-1-1s.4477153-1 1-1h2c.5522847 0 1 .4477153 1 1s-.4477153 1-1 1z" fill="#f9eab0"/><path id="Shape" d="m38 28c-.5522847 0-1-.4477153-1-1 0-5.986-1.5-7.133-1.515-7.144-.2329044-.1176553-.4083053-.3245277-.486286-.5735383-.0779806-.2490106-.0519074-.518977.072286-.7484617.2666534-.4922216.8768606-.6824679 1.376-.429.426.214 2.553 1.644 2.553 8.895 0 .5522847-.4477153 1-1 1z" fill="#f9eab0"/><path id="Shape" d="m39 27h-2c-.5522847 0-1-.4477153-1-1s.4477153-1 1-1h2c.5522847 0 1 .4477153 1 1s-.4477153 1-1 1z" fill="#f9eab0"/><circle id="Oval" cx="35" cy="30" fill="#ff5364" r="1"/><circle id="Oval" cx="35" cy="38" fill="#ff5364" r="1"/><circle id="Oval" cx="35" cy="46" fill="#ff5364" r="1"/><circle id="Oval" cx="23" cy="30" fill="#ff5364" r="1"/><circle id="Oval" cx="23" cy="38" fill="#ff5364" r="1"/><circle id="Oval" cx="23" cy="46" fill="#ff5364" r="1"/></g></g></svg>