<svg height="512pt" viewBox="-50 0 512 512" width="512pt" xmlns="http://www.w3.org/2000/svg"><path d="m309.523438 93.785156c-11.277344-53.488281-59.085938-93.785156-116.191407-93.785156-65.460937 0-118.71875 52.945312-118.71875 118.019531v36.179688c.058594-.003907.113281-.007813.167969-.007813 9.351562 0 17.726562 7.773438 21.339844 19.800782l.34375 1.148437 1.066406-.542969c2.75-1.402344 5.5625-2.417968 8.335938-3.0625v-40.5h-1.367188c-2.292969 0-4.15625-1.859375-4.15625-4.148437v-60.972657c0-2.285156 1.863281-4.148437 4.15625-4.148437h22.195312c16.058594-18.769531 39.96875-30.699219 66.636719-30.699219 48.226563 0 87.460938 39.007813 87.460938 86.953125v4.933594c3.027343-2.648437 6.496093-4.335937 10.164062-4.800781l.933594-.121094-.058594-.9375c-.03125-.476562-.054687-.953125-.054687-1.4375 0-10.714844 7.613281-19.6875 17.746094-21.871094zm0 0" fill="#ffc987"/><path d="m100.34375 65.914062c0-2.285156 1.863281-4.148437 4.15625-4.148437h.242188c18.953124-34.59375 54.808593-58.773437 96.460937-61.5-2.601563-.1679688-5.226563-.265625-7.871094-.265625-65.460937 0-118.71875 52.945312-118.71875 118.019531v36.179688c.058594-.003907.113281-.007813.167969-.007813 5.898438 0 11.410156 3.101563 15.582031 8.410156v-44.582031c0-16.828125 3.566407-32.839843 9.980469-47.339843zm0 0" fill="#ffaf68"/><path d="m293.078125 118c9.140625 0 17.441406 7.550781 21.148437 19.230469l.570313 1.796875c.171875-.003906.34375-.007813.511719-.011719l.777344-1.660156c4.59375-9.824219 10.835937-18.695313 18.550781-26.363281.714843-.710938 1.453125-1.386719 2.1875-2.070313-2.910157-9.628906-11.894531-16.648437-22.527344-16.648437-12.988281 0-23.519531 10.46875-23.519531 23.382812 0 .847656.046875 1.679688.136718 2.503906.714844-.09375 1.4375-.160156 2.164063-.160156zm0 0" fill="#bb0a7e"/><path d="m36.632812 169.507812c5.042969 0 10.453126 1.46875 15.644532 4.25l1.054687.5625.367188-1.136718c3.355469-10.347656 10.355469-17.394532 18.308593-18.742188-1.878906-9.621094-10.394531-16.890625-20.625-16.890625-11.609374 0-21.019531 9.355469-21.019531 20.898438 0 4.148437 1.230469 8.003906 3.328125 11.253906.953125-.117187 1.929688-.195313 2.941406-.195313zm0 0" fill="#bb0a7e"/><path d="m290.433594 464.777344 32.804687-162.769532c-11.367187 4.8125-23.722656 7.375-36.386719 7.375 0 0 0 0-.003906 0-15.589844 0-31.058594-3.953124-44.730468-11.429687l-.636719-.347656-.527344.5c-3.375 3.179687-8.007813 4.859375-13.390625 4.859375-5.039062 0-10.441406-1.46875-15.625-4.242188l-1.054688-.566406-.367187 1.140625c-3.738281 11.539063-12.011719 18.992187-21.082031 18.992187-9.347656 0-17.726563-7.773437-21.335938-19.804687l-.34375-1.144531-1.066406.542968c-4.21875 2.144532-8.675781 3.445313-12.894531 3.757813l-.773438.058594-.136719.761719c-.476562 2.601562-1.617187 4.8125-3.394531 6.578124-2.375 2.363282-5.574219 3.609376-9.25 3.609376-5.019531 0-10.503906-2.472657-14.675781-6.621094l-.253906-.257813-.710938-.738281-.988281 1c-4.167969 4.144531-9.65625 6.617188-14.675781 6.617188-3.675782 0-6.875-1.246094-9.25-3.609376-2.925782-2.910156-4.160156-7.035156-3.472656-11.617187.5625-3.777344 2.371093-7.507813 5.230468-10.792969l.574219-.660156-.574219-.65625c-1.488281-1.710938-2.710937-3.589844-3.628906-5.574219l-.15625-.332031-3.195312-1.617188-.367188 1.140626c-3.738281 11.539062-12.015625 18.992187-21.082031 18.992187-2.1875 0-4.375-.441406-6.5-1.308594l-.925781-.378906-2.394532 4.632813 33.03125 163.910156zm0 0" fill="#ffe2b8"/><g fill="#ffc987"><path d="m290.4375 464.777344 5.34375-26.542969h-204.90625l5.351562 26.542969zm0 0"/><path d="m148.597656 391.574219c-4.824218-4.75-7.480468-11.0625-7.480468-17.773438 0-.195312.011718-.386719.015624-.578125h-63.359374l6.316406 31.34375h77.695312zm0 0"/><path d="m245.527344 373.222656c.003906.191406.015625.382813.015625.578125 0 6.710938-2.652344 13.023438-7.472657 17.773438l-13.1875 12.992187h77.6875l6.316407-31.34375zm0 0"/><path d="m286.851562 309.382812s0 0-.003906 0c-4.925781 0-9.839844-.398437-14.691406-1.171874h-65.957031c-4.296875 6.308593-10.328125 10.078124-16.765625 10.078124-6.496094 0-12.515625-3.757812-16.800782-10.078124h-22.390624c-.234376.285156-.484376.5625-.753907.828124-2.375 2.363282-5.574219 3.613282-9.25 3.613282-4.0625 0-8.429687-1.625-12.160156-4.441406h-6.980469c-3.730468 2.816406-8.101562 4.441406-12.164062 4.441406-3.675782 0-6.875-1.25-9.246094-3.613282-.265625-.261718-.5-.546874-.738281-.828124h-34.277344l6.316406 31.34375h244.683594l6.316406-31.34375h-20.378906c-4.84375.773437-9.777344 1.171874-14.757813 1.171874zm0 0"/></g><path d="m120.863281 464.777344-34.769531-172.550782c-3.785156 3.625-8.320312 5.695313-13.082031 5.695313-2.1875 0-4.375-.441406-6.5-1.308594l-.921875-.378906-.382813.921875c-.546875 1.328125-1.226562 2.566406-2.015625 3.710938l33.03125 163.910156zm0 0" fill="#eac092"/><path d="m120.863281 464.777344-5.347656-26.542969h-24.640625l5.351562 26.542969zm0 0" fill="#e0aa68"/><path d="m84.089844 404.566406h24.640625l-6.316407-31.34375h-24.640624zm0 0" fill="#e0aa68"/><path d="m70.988281 339.554688h24.640625l-6.316406-31.34375h-24.640625zm0 0" fill="#e0aa68"/><path d="m51.675781 278.117188-.347656-1.144532-1.066406.542969c-4.953125 2.519531-10.101563 3.851563-14.882813 3.851563-2.671875 0-5.148437-.421876-7.378906-1.21875-1.464844 2.847656-2.308594 6.066406-2.308594 9.488281 0 11.539062 9.410156 20.894531 21.019532 20.894531 9.144531 0 16.898437-5.8125 19.792968-13.914062-6.585937-2.683594-12.085937-9.355469-14.828125-18.5zm0 0" fill="#bb0a7e"/><path d="m411.945312 88.140625c-.09375-1.316406-.671874-2.5-1.554687-3.378906-.882813-.878907-2.074219-1.449219-3.402344-1.546875-27.152343-1.953125-53.78125 7.910156-73.054687 27.066406-8.230469 8.179688-14.746094 17.695312-19.371094 28.007812l.199219.660157 1.066406-.542969c4.953125-2.519531 10.101563-3.851562 14.886719-3.851562 5.539062 0 10.261718 1.769531 13.652344 5.117187 6.605468 6.511719 6.949218 17.839844.878906 28.855469l-.589844 1.070312 1.164062.367188c5.886719 1.855468 10.71875 4.839844 14.074219 8.480468 9.085938-4.457031 17.484375-10.398437 24.820313-17.6875 19.273437-19.15625 29.199218-45.625 27.230468-72.617187zm0 0" fill="#00cca5"/><path d="m411.945312 88.140625c-.09375-1.316406-.671874-2.5-1.554687-3.378906-.882813-.878907-2.074219-1.449219-3.402344-1.546875-27.152343-1.953125-53.78125 7.910156-73.054687 27.066406-8.230469 8.179688-14.746094 17.695312-19.371094 28.007812l.199219.660157 1.066406-.542969c4.953125-2.519531 10.101563-3.851562 14.886719-3.851562 2.152344 0 4.179687.273437 6.054687.800781 2.359375-3.007813 4.894531-5.898438 7.644531-8.628907 17.996094-17.886718 42.402344-27.667968 67.660157-27.296874.183593-3.742188.148437-7.511719-.128907-11.289063zm0 0" fill="#02af8e"/><path d="m372.285156 122.636719c-2.917968-2.9375-7.667968-2.949219-10.605468-.03125l-17.242188 17.140625c4.007812 4 5.671875 9.792968 4.96875 16.210937l22.847656-22.714843c2.9375-2.917969 2.953125-7.667969.03125-10.605469zm0 0" fill="#00752c"/><path d="m346.121094 169.011719c6.078125-11.035157 6.0625-23.039063-1.050782-30.054688-6.949218-6.851562-18.726562-7.023437-29.695312-1.441406-3.617188-12.039063-12.234375-20.515625-22.296875-20.515625-9.828125 0-18.277344 8.089844-22.035156 19.683594-11.191407-5.992188-23.359375-5.976563-30.476563 1.039062-6.949218 6.855469-7.125 18.464844-1.464844 29.285156-12.210937 3.566407-20.804687 12.066407-20.804687 21.984376 0 1.339843.171875 2.648437.472656 3.929687 3.40625-1.183594 6.820313-1.8125 10.066407-1.8125 5.542968 0 10.265624 1.769531 13.65625 5.117187 6.605468 6.515626 6.949218 17.839844.875 28.859376l-.589844 1.066406 1.167968.367187c9.875 3.113281 16.78125 9.410157 18.703126 16.667969 7.8125-2.09375 15.9375-3.1875 24.199218-3.191406 8.980469.003906 17.808594 1.296875 26.238282 3.765625.082031-.242188.175781-.472657.253906-.714844 11.191406 5.992187 23.363281 5.976563 30.476562-1.039063 6.953125-6.855468 7.125-18.464843 1.464844-29.285156 12.210938-3.566406 20.804688-12.0625 20.804688-21.984375.003906-9.691406-8.203126-18.023437-19.964844-21.726562zm0 0" fill="#ffcb00"/><path d="m315.175781 189.863281c0-12.515625-10.289062-22.664062-22.984375-22.664062-12.691406 0-22.984375 10.148437-22.984375 22.664062 0 12.519531 10.292969 22.667969 22.984375 22.667969 12.695313 0 22.984375-10.148438 22.984375-22.667969zm0 0" fill="#fff"/><path d="m290.664062 189.863281c0-8.691406 4.96875-16.242187 12.257813-20.042969-3.203125-1.667968-6.851563-2.621093-10.726563-2.621093-12.695312 0-22.988281 10.148437-22.988281 22.664062 0 12.519531 10.292969 22.667969 22.988281 22.667969 3.875 0 7.523438-.949219 10.726563-2.621094-7.289063-3.800781-12.257813-11.347656-12.257813-20.046875zm0 0" fill="#e0e0e0"/><path d="m357.765625 271.207031c-17.8125-20.46875-43.65625-32.207031-70.917969-32.210937-8.351562.003906-16.570312 1.109375-24.46875 3.226562.542969 1.644532.832032 3.34375.832032 5.074219 0 9.207031-7.882813 17.460937-20.085938 21.023437l-1.171875.34375.566406 1.078126c5.628907 10.761718 5.125 21.792968-1.28125 28.109374-.171875.167969-.355469.3125-.535156.476563 13.917969 7.816406 29.773437 12.054687 46.144531 12.054687 27.257813 0 53.109375-11.738281 70.917969-32.207031.867187-1 1.304687-2.242187 1.304687-3.484375 0-1.242187-.4375-2.484375-1.304687-3.484375zm0 0" fill="#00cca5"/><path d="m357.765625 271.207031c-2.214844-2.546875-4.554687-4.953125-7.003906-7.222656-17.257813 15.980469-40.042969 24.984375-63.914063 24.980469-12.164062 0-24.035156-2.359375-35.046875-6.773438h-5.484375c.53125 6.21875-1.175781 11.816406-5.078125 15.660156-.167969.167969-.355469.316407-.535156.476563 13.917969 7.816406 29.777344 12.054687 46.148437 12.054687 27.253907 0 53.105469-11.738281 70.914063-32.207031.867187-.996093 1.304687-2.242187 1.304687-3.484375 0-1.242187-.4375-2.484375-1.304687-3.484375zm0 0" fill="#02af8e"/><path d="m297.65625 267.191406h-51.242188c-1.0625.410156-2.148437.796875-3.289062 1.128906l-1.171875.339844.566406 1.082032c2.203125 4.207031 3.453125 8.453124 3.789063 12.445312l51.347656.003906c4.144531 0 7.5-3.359375 7.5-7.5s-3.355469-7.5-7.5-7.5zm0 0" fill="#00752c"/><path d="m149.34375 131.035156v59.132813c1.191406-.1875 2.425781-.292969 3.710938-.292969 3.644531 0 7.480468.777344 11.289062 2.253906v-61.09375zm0 0" fill="#b57a4e"/><path d="m214.347656 126.886719c0 2.832031-2.320312 5.148437-5.15625 5.148437h-104.691406c-2.835938 0-5.15625-2.316406-5.15625-5.148437v-60.972657c0-2.832031 2.320312-5.148437 5.15625-5.148437h104.691406c2.835938 0 5.15625 2.316406 5.15625 5.148437zm0 0" fill="#abebff"/><path d="m118.28125 126.886719v-60.972657c0-2.832031 2.320312-5.148437 5.15625-5.148437h-18.941406c-2.835938 0-5.152344 2.316406-5.152344 5.148437v60.972657c0 2.832031 2.316406 5.148437 5.152344 5.148437h18.941406c-2.835938 0-5.15625-2.316406-5.15625-5.148437zm0 0" fill="#76d8ff"/><path d="m186.898438 91.824219h-60.109376c-4.140624 0-7.5-3.359375-7.5-7.5s3.359376-7.5 7.5-7.5h60.109376c4.140624 0 7.5 3.359375 7.5 7.5s-3.359376 7.5-7.5 7.5zm0 0" fill="#0052ac"/><path d="m174.355469 113.910156h-35.019531c-4.144532 0-7.5-3.359375-7.5-7.5s3.355468-7.5 7.5-7.5h35.019531c4.140625 0 7.5 3.359375 7.5 7.5s-3.359375 7.5-7.5 7.5zm0 0" fill="#0052ac"/><path d="m96.210938 274.515625c-.6875-4.582031.546874-8.707031 3.476562-11.617187 2.375-2.363282 5.570312-3.609376 9.246094-3.609376 5.019531 0 10.507812 2.476563 14.675781 6.621094l.984375 1 .714844-.738281c.082031-.085937.167968-.175781.253906-.257813 1.101562-1.097656 2.300781-2.074218 3.554688-2.921874-7.28125-4.273438-11.695313-10.628907-11.695313-17.441407 0-9.210937 7.886719-17.460937 20.085937-21.027343l1.171876-.339844-.566407-1.082032c-2.722656-5.207031-3.996093-10.46875-3.875-15.238281-1.980469-1.046875-4.125-1.941406-6.410156-2.664062 6.078125-11.03125 6.058594-23.035157-1.054687-30.050781-6.945313-6.851563-18.722657-7.023438-29.695313-1.445313-3.617187-12.039063-12.234375-20.511719-22.296875-20.511719-9.828125 0-18.273438 8.085938-22.03125 19.683594-11.195312-5.992188-23.363281-5.976562-30.480469 1.039062-6.949219 6.851563-7.121093 18.464844-1.464843 29.285157-12.210938 3.566406-20.804688 12.066406-20.804688 21.984375 0 9.691406 8.203125 18.023437 19.964844 21.726562-6.078125 11.035156-6.058594 23.039063 1.058594 30.054688 6.945312 6.851562 18.722656 7.023437 29.691406 1.441406 3.617187 12.039062 12.234375 20.515625 22.296875 20.515625 9.828125 0 18.273437-8.085937 22.035156-19.683594 1.089844.582031 2.1875 1.089844 3.289063 1.558594-1.078126-2.03125-1.808594-4.148437-2.125-6.28125zm0 0" fill="#ffcb00"/><path d="m96.878906 226.054688c0-12.515626-10.289062-22.664063-22.984375-22.664063-12.691406 0-22.984375 10.148437-22.984375 22.664063 0 12.519531 10.292969 22.664062 22.984375 22.664062 12.695313 0 22.984375-10.144531 22.984375-22.664062zm0 0" fill="#fff"/><path d="m69.371094 226.054688c0-9.277344 5.660156-17.25 13.757812-20.753907-2.828125-1.226562-5.949218-1.910156-9.230468-1.910156-12.695313 0-22.988282 10.148437-22.988282 22.664063 0 12.519531 10.292969 22.667968 22.988282 22.667968 3.28125 0 6.402343-.6875 9.230468-1.910156-8.097656-3.507812-13.757812-11.476562-13.757812-20.757812zm0 0" fill="#e0e0e0"/><path d="m264.210938 247.296875c0-9.691406-8.199219-18.023437-19.964844-21.730469 6.082031-11.03125 6.0625-23.035156-1.050782-30.050781-6.949218-6.855469-18.726562-7.023437-29.699218-1.441406-3.613282-12.042969-12.230469-20.515625-22.292969-20.515625-9.828125 0-18.277344 8.085937-22.035156 19.683594-11.191407-5.992188-23.363281-5.976563-30.476563 1.039062-6.949218 6.855469-7.121094 18.464844-1.464844 29.285156-12.210937 3.566406-20.804687 12.066406-20.804687 21.984375 0 7.238281 4.578125 13.71875 11.796875 18.078125 3.699219-2.753906 8.007812-4.339844 12.019531-4.339844 3.675781 0 6.875 1.25 9.25 3.609376 5.425781 5.394531 4.667969 15.03125-1.757812 22.414062l-.570313.65625.570313.660156c4.355469 5 6.097656 11.035156 5.085937 16.085938 4.617188-.175782 9.546875-1.511719 14.320313-3.941406 3.617187 12.042968 12.230469 20.515624 22.296875 20.515624 9.828125 0 18.273437-8.085937 22.03125-19.683593 11.191406 5.992187 23.363281 5.976562 30.476562-1.039063 6.949219-6.851562 7.125-18.464844 1.464844-29.285156 12.210938-3.566406 20.804688-12.0625 20.804688-21.984375zm0 0" fill="#bb0a7e"/><path d="m213.300781 246.421875c0-12.519531-10.289062-22.664063-22.984375-22.664063-12.691406 0-22.984375 10.144532-22.984375 22.664063s10.292969 22.667969 22.984375 22.667969c12.695313 0 22.984375-10.148438 22.984375-22.667969zm0 0" fill="#fff"/><path d="m184.878906 246.421875c0-9.453125 5.871094-17.550781 14.210938-20.949219-2.703125-1.105468-5.664063-1.714844-8.773438-1.714844-12.6875 0-22.980468 10.148438-22.980468 22.664063 0 12.519531 10.292968 22.667969 22.980468 22.667969 3.109375 0 6.070313-.613282 8.773438-1.714844-8.339844-3.402344-14.210938-11.5-14.210938-20.953125zm0 0" fill="#e0e0e0"/><path d="m140.238281 313.648438c-5.277343 0-11.027343-2.582032-15.382812-6.910157-.089844-.089843-.179688-.183593-.269531-.273437-.089844.089844-.175782.179687-.265626.269531-4.359374 4.332031-10.109374 6.917969-15.386718 6.917969-3.945313 0-7.390625-1.351563-9.953125-3.902344-3.160157-3.140625-4.496094-7.570312-3.761719-12.476562.589844-3.957032 2.515625-7.910157 5.46875-11.300782-2.957031-3.398437-4.878906-7.351562-5.46875-11.308594-.734375-4.902343.601562-9.335937 3.761719-12.472656 2.5625-2.550781 6.007812-3.902344 9.953125-3.902344 5.277344 0 11.027344 2.582032 15.378906 6.914063.09375.089844.183594.179687.273438.273437.089843-.09375.183593-.1875.273437-.277343 4.351563-4.324219 10.097656-6.910157 15.378906-6.910157 3.945313 0 7.386719 1.351563 9.957031 3.902344 5.890626 5.855469 5.050782 16.011719-1.710937 23.777344 6.757813 7.765625 7.601563 17.925781 1.710937 23.78125-2.566406 2.550781-6.011718 3.898438-9.957031 3.898438zm0 0" fill="#fff"/><path d="m120.328125 309.75c-3.15625-3.140625-4.492187-7.570312-3.757813-12.476562.589844-3.957032 2.515626-7.910157 5.46875-11.304688-2.957031-3.394531-4.878906-7.347656-5.472656-11.304688-.730468-4.90625.605469-9.335937 3.761719-12.476562.042969-.042969.09375-.078125.140625-.125-3.617188-2.40625-7.699219-3.773438-11.535156-3.773438-3.941406 0-7.386719 1.347657-9.953125 3.898438-3.160157 3.140625-4.492188 7.570312-3.761719 12.476562.59375 3.957032 2.515625 7.910157 5.472656 11.304688-2.957031 3.394531-4.878906 7.347656-5.46875 11.304688-.734375 4.90625.597656 9.335937 3.757813 12.476562 2.566406 2.550781 6.011719 3.898438 9.953125 3.898438 3.835937 0 7.914062-1.367188 11.535156-3.773438-.046875-.042969-.097656-.082031-.140625-.125zm0 0" fill="#e0e0e0"/><path d="m107.558594 512c-25.808594 0-48.832032-16.28125-57.296875-40.515625-.617188-1.773437-.335938-3.738281.757812-5.269531s2.871094-2.4375 4.757813-2.4375h271.480468c1.886719 0 3.660157.90625 4.757813 2.4375 1.09375 1.53125 1.375 3.496094.753906 5.269531-8.460937 24.234375-31.488281 40.515625-57.296875 40.515625zm0 0" fill="#b57a4e"/><path d="m82.660156 471.484375c-.617187-1.773437-.335937-3.738281.761719-5.269531 1.09375-1.53125 2.867187-2.4375 4.757813-2.4375h-32.402344c-1.886719 0-3.664063.90625-4.757813 2.4375s-1.375 3.496094-.757812 5.269531c8.464843 24.234375 31.488281 40.515625 57.296875 40.515625h32.402344c-25.8125 0-48.835938-16.28125-57.300782-40.515625zm0 0" fill="#9b5729"/><path d="m193.332031 433.589844c-1.34375 0-2.609375-.515625-3.558593-1.449219l-41.179688-40.566406c-4.820312-4.75-7.476562-11.0625-7.476562-17.773438 0-6.714843 2.65625-13.03125 7.476562-17.773437 4.820312-4.75 11.226562-7.367188 18.046875-7.367188 6.8125 0 13.222656 2.617188 18.046875 7.367188l8.644531 8.511718 8.640625-8.511718c4.828125-4.75 11.230469-7.367188 18.050782-7.367188 6.816406 0 13.222656 2.617188 18.046874 7.367188 4.816407 4.746094 7.46875 11.058594 7.46875 17.773437 0 6.710938-2.648437 13.023438-7.46875 17.773438l-41.183593 40.566406c-.949219.933594-2.214844 1.449219-3.554688 1.449219zm0 0" fill="#fe3745"/><path d="m169.996094 380.296875c-4.820313-4.75-7.476563-11.0625-7.476563-17.777344 0-5 1.476563-9.78125 4.222657-13.855469-.03125 0-.066407-.003906-.101563-.003906-6.820313 0-13.226563 2.617188-18.042969 7.367188-4.824218 4.742187-7.480468 11.058594-7.480468 17.773437 0 6.710938 2.65625 13.023438 7.480468 17.773438l41.179688 40.566406c.945312.933594 2.210937 1.449219 3.558594 1.449219 1.339843 0 2.601562-.515625 3.550781-1.449219l12.871093-12.679687zm0 0" fill="#cf043c"/></svg>