<svg height="512" viewBox="0 0 58 58" width="512" xmlns="http://www.w3.org/2000/svg"><g id="Page-1" fill="none" fill-rule="evenodd"><g id="002---Shopping" fill-rule="nonzero"><path id="Shape" d="m6.52 19h-.52c-.55228475 0-1 .4477153-1 1v32c0 3.3137085 2.6862915 6 6 6h20c1.6821912.0014084 3.2869924-.7065921 4.42-1.95 1.5851785 1.2637372 3.5527307 1.9513226 5.58 1.95.3342401.000246.6681872-.0197909 1-.06v-17.88c-.3318128-.0402091-.6657599-.060246-1-.06-1.3881642-.0008975-2.7575342.3209044-4 .94v-20.94c0-.5522847-.4477153-1-1-1z" fill="#a56a43"/><path id="Shape" d="m25 2v4h-6v-4c.0032948-1.10320187.8967981-1.9967052 2-2h2c1.1032019.0032948 1.9967052.89679813 2 2z" fill="#bdc3c7"/><path id="Shape" d="m8 12c-.37182981.0002563-.71309919-.205815-.886-.535-1.22685329-2.45247703-1.84884916-5.16299378-1.814-7.905 0-.55228475.44771525-1 1-1 .26521649 0 .5195704.10535684.70710678.29289322s.29289322.44189029.29289322.70710678c-.03481351 2.4164614.50862651 4.80622604 1.585 6.97.16523453.3103104.15538394.6845941-.02594436.9857835s-.5074958.4850374-.85905564.4842165z" fill="#a56a43"/><path id="Shape" d="m20 14.5c.0049473 1.6268228-.5296059 3.2093815-1.52 4.5h-2.48v-4c0-.5522847.4477153-1 1-1h2.97c.019955.1659199.0299729.3328844.03.5z" fill="#f29c1f"/><path id="Shape" d="m26 15v4h-7.52c.9903941-1.2906185 1.5249473-2.8731772 1.52-4.5-.0000271-.1671156-.010045-.3340801-.03-.5h5.03c.5522847 0 1 .4477153 1 1z" fill="#e64c3c"/><g fill="#805333"><path id="Shape" d="m21 55c-.5522847 0-1-.4477153-1-1v-4c0-.5522847.4477153-1 1-1s1 .4477153 1 1v4c0 .5522847-.4477153 1-1 1z"/><path id="Shape" d="m25 55c-.5522847 0-1-.4477153-1-1v-4c0-.5522847.4477153-1 1-1s1 .4477153 1 1v4c0 .5522847-.4477153 1-1 1z"/><path id="Shape" d="m17 55c-.5522847 0-1-.4477153-1-1v-4c0-.5522847.4477153-1 1-1s1 .4477153 1 1v4c0 .5522847-.4477153 1-1 1z"/></g><path id="Shape" d="m30 14v5h-4v-4c0-.5522847-.4477153-1-1-1h-8c-.5522847 0-1 .4477153-1 1v4h-4v-5c0-2.209139 1.790861-4 4-4h10c2.2068582.0054966 3.9945034 1.7931418 4 4z" fill="#cb8252"/><path id="Shape" d="m36.56 15.71c-.69 1.17-1.41 2.27-2.15 3.29h-4.41v-5c.0026782-1.4287069-.7606343-2.7492375-2-3.46.32-.55.66-1.08 1-1.6v-.01c.5-.77 1.01-1.49 1.52-2.18.42-.56.83-1.09 1.25-1.58 3.21-3.85 6.4-5.91 8.09-4.92 2.38 1.4.9 8.32-3.3 15.46z" fill="#f0c419"/><path id="Shape" d="m33.75 10.16c-.1056268.0392101-.2173314.0595201-.33.06-.4263369-.0004442-.8064808-.2685457-.95-.67-.3827371-1.09357316-1.0570202-2.06177448-1.95-2.8.42-.56.83-1.09 1.25-1.58 1.1848138.98208325 2.0801188 2.26800402 2.59 3.72.1800268.51902278-.092342 1.08608564-.61 1.27z" fill="#f29c1f"/><path id="Shape" d="m8 11c-.78664169.5564545-1.6779237.9476661-2.62 1.15-3.98.76-5.38-4.15-5.38-4.15 3.67-1.22 5.84.17 6.98 1.44.42209897.46143867.76657049.9882775 1.02 1.56z" fill="#24ae5f"/><path id="Shape" d="m18.48 10h-2.48c-2.209139 0-4 1.790861-4 4v5h-5.48c-1.48879113-1.9545794-1.91550226-4.5185893-1.14-6.85.9420763-.2023339 1.83335831-.5935455 2.62-1.15-.25342951-.5717225-.59790103-1.09856133-1.02-1.56.07491628-.08492713.15507287-.16508372.24-.24 2.09272281-2.10519027 5.2346341-2.76891903 8-1.69v.01c1.301076.49860949 2.4322796 1.35915702 3.26 2.48z" fill="#f29c1f"/><path id="Shape" d="m29 8.93v.01c-.34.52-.68 1.05-1 1.6-.6074777-.3529906-1.2974112-.5392727-2-.54h-7.52c-.8277204-1.12084298-1.958924-1.98139051-3.26-2.48v-.01c.6586874-2.08628306 2.5922087-3.50608635 4.78-3.51h4c2.7343164-.00026798 4.9617196 2.19595153 5 4.93z" fill="#e64c3c"/><path id="Shape" d="m50 49c.0010148 4.5831793-3.4448462 8.433929-8 8.94-.3318128.0402091-.6657599.060246-1 .06-4.9705627 0-9-4.0294373-9-9s4.0294373-9 9-9c.3342401-.000246.6681872.0197909 1 .06h.04c-.5156377.7419588-.8605626 1.5889031-1.01 2.48 2.72.93 4.38.34 5.39-.72 2.2575567 1.6959199 3.5840938 4.3564048 3.58 7.18z" fill="#f29c1f"/><path id="Shape" d="m48 37.6c-.0514237 1.5415184-.606385 3.023757-1.58 4.22-1.01 1.06-2.67 1.65-5.39.72.1494374-.8910969.4943623-1.7380412 1.01-2.48.94-1.34 2.69-2.67 5.96-2.46z" fill="#24ae5f"/><path id="Shape" d="m58 32v15h-8.22c-.4718937-2.0698036-1.6624373-3.905225-3.36-5.18.973615-1.196243 1.5285763-2.6784816 1.58-4.22-3.27-.21-5.02 1.12-5.96 2.46h-.04v-8.06z" fill="#ecf0f1"/><path id="Shape" d="m58 25v7h-16v-7c0-2.52 2.07-4.67 5-5.56 1.9569754-.5866827 4.0430246-.5866827 6 0 2.93.89 5 3.04 5 5.56z" fill="#3b97d3"/><path id="Shape" d="m49.78 47h8.22v9c-.0032948 1.1032019-.8967981 1.9967052-2 2h-14v-.06c4.5551538-.506071 8.0010148-4.3568207 8-8.94-.0012264-.6726367-.0749861-1.3431799-.22-2z" fill="#3b97d3"/><path id="Shape" d="m53 15v4.44c-1.9569754-.5866827-4.0430246-.5866827-6 0v-4.44z" fill="#2980ba"/><path id="Shape" d="m54 12v2c0 .5522847-.4477153 1-1 1h-6c-.5522847 0-1-.4477153-1-1v-2c.0032948-1.1032019.8967981-1.9967052 2-2h4c1.1032019.0032948 1.9967052.8967981 2 2z" fill="#285680"/><path id="Shape" d="m9 23c0 .5522847-.44771525 1-1 1h-3v-2h3c.55228475 0 1 .4477153 1 1z" fill="#cf976a"/><path id="Shape" d="m37 22v2h-24c-.5522847 0-1-.4477153-1-1s.4477153-1 1-1z" fill="#cf976a"/></g></g></svg>