<svg height="512" viewBox="0 0 64 64" width="512" xmlns="http://www.w3.org/2000/svg"><g id="Flat"><g id="Color_copy" data-name="Color copy"><g><path d="m36.5 39.206a9 9 0 1 0 3.294 12.294 9 9 0 0 0 -3.294-12.294zm-7 12.124a5 5 0 1 1 6.83-1.83 5 5 0 0 1 -6.83 1.83z" fill="#f9e109"/><path d="m32.806 42.08a4.951 4.951 0 0 1 1.694.59c.04.023.07.055.109.079l1.891-3.275-1.852-1.074a8.95 8.95 0 0 0 -2.932-.391z" fill="#fcbc04"/><path d="m32 15a23 23 0 1 0 23 23 23 23 0 0 0 -23-23zm0 41a18 18 0 1 1 18-18 18 18 0 0 1 -18 18z" fill="#f9e109"/><path d="m24.319 16.319 4.048 4.048a18.125 18.125 0 0 1 3.633-.367l4.548-4.548a23.054 23.054 0 0 0 -12.229.867z" fill="#fcbc04"/><g><path d="m32 21-4-11h8z" fill="#57b7eb"/><path d="m32 3-4 7h8z" fill="#84d2f4"/><path d="m25 3-4 7h7z" fill="#84d2f4"/><path d="m32 3h-7l3 7z" fill="#57b7eb"/><path d="m39 3h-7l4 7z" fill="#57b7eb"/><path d="m43 10-4-7-3 7z" fill="#84d2f4"/><g fill="#4891d3"><path d="m21 10 11 10.999-4-10.999z"/><path d="m43 10h-7l-4 11z"/></g></g><g><path d="m42.696 40.474-8.196 2.196-2.196-8.196 4.598-1.964 5.196 3z" fill="#84d2f4"/><path d="m42.098 35.51-5.196-3 .598 4.964z" fill="#84d2f4"/><path d="m37.5 37.474-.598-4.964-4.598 1.964z" fill="#57b7eb"/><path d="m42.696 40.474-.598-4.964-4.598 1.964z" fill="#57b7eb"/><path d="m32.304 34.474 2.196 8.195 3-5.195z" fill="#4891d3"/><path d="m42.696 40.474-5.196-3-3 5.195v.001z" fill="#84d2f4"/></g><g fill="#fcbc04"><path d="m34 59a22.994 22.994 0 0 1 -17.229-38.229 23 23 0 1 0 32.458 32.458 22.906 22.906 0 0 1 -15.229 5.771z"/><path d="m28.5 52.794a9 9 0 0 1 -3.993-10.761c-.1.155-.208.3-.3.467a9 9 0 0 0 15.588 9 9.109 9.109 0 0 0 .7-1.533 8.994 8.994 0 0 1 -11.995 2.827z"/></g></g></g></g></svg>