<?xml version="1.0" encoding="iso-8859-1"?>
<!-- Generator: Adobe Illustrator 19.0.0, SVG Export Plug-In . SVG Version: 6.00 Build 0)  -->
<svg version="1.1" id="Capa_1" xmlns="http://www.w3.org/2000/svg" xmlns:xlink="http://www.w3.org/1999/xlink" x="0px" y="0px"
	 viewBox="0 0 511.999 511.999" style="enable-background:new 0 0 511.999 511.999;" xml:space="preserve">
<path style="fill:#2B84E9;" d="M483.573,375.929H90.405c-15.7,0-28.427-12.727-28.427-28.427V92.884
	c0-15.7,12.727-28.427,28.427-28.427h393.167c15.7,0,28.427,12.727,28.427,28.427v254.619
	C512,363.202,499.273,375.929,483.573,375.929z"/>
<rect x="243.91" y="373.419" style="fill:#363C44;" width="86.16" height="74.58"/>
<g>
	<rect x="243.91" y="373.419" style="fill:#292E33;" width="86.16" height="19.943"/>
	<rect x="243.91" y="431.399" style="fill:#292E33;" width="86.16" height="14.08"/>
</g>
<path style="fill:#555E6B;" d="M61.978,347.502c0,15.7,12.727,28.427,28.427,28.427h393.167c15.7,0,28.427-12.727,28.427-28.427
	v-59.164H61.978V347.502z"/>
<circle style="fill:#49BC6E;" cx="472.68" cy="330.919" r="7.773"/>
<path style="fill:#2676C6;" d="M199.231,64.456H91.394c-15.7,0-28.427,12.727-28.427,28.427v254.618
	c0,15.7,12.727,28.427,28.427,28.427H199.23V64.456H199.231z"/>
<g>
	<circle style="fill:#49BC6E;" cx="444.69" cy="330.919" r="7.773"/>
	<circle style="fill:#49BC6E;" cx="417.06" cy="330.919" r="7.773"/>
</g>
<path style="fill:#434B56;" d="M62.967,288.338v59.164c0,15.7,12.727,28.427,28.427,28.427H199.23v-87.592H62.967V288.338z"/>
<path style="fill:#555E6B;" d="M155.845,476.962H13.115C5.872,476.962,0,471.09,0,463.846V48.152
	c0-7.243,5.872-13.115,13.115-13.115h142.729c7.243,0,13.115,5.872,13.115,13.115v415.695
	C168.96,471.09,163.088,476.962,155.845,476.962z"/>
<path style="fill:#363C44;" d="M364.424,476.962h-154.87c-1.606,0-2.908-1.302-2.908-2.908v-12.408
	c0-8.927,7.237-16.164,16.164-16.164h128.358c8.927,0,16.164,7.237,16.164,16.164v12.408
	C367.332,475.66,366.03,476.962,364.424,476.962z"/>
<circle style="fill:#FFE92F;" cx="286.99" cy="329.189" r="15.182"/>
<g>
	<path style="fill:#2E343A;" d="M49.828,392.566l-19.356-96.779c-0.298-1.49-0.949-2.887-1.898-4.073L0,255.999v199.198
		l47.663-54.512C49.607,398.462,50.407,395.462,49.828,392.566z"/>
	<path style="fill:#2E343A;" d="M119.132,392.566l19.356-96.779c0.298-1.49,0.949-2.887,1.898-4.073l28.574-35.715v199.198
		l-47.663-54.512C119.353,398.462,118.553,395.462,119.132,392.566z"/>
</g>
<g>
	<path style="fill:#96ABBC;" d="M66.552,454.334H48.199c-4.293,0-7.773-3.48-7.773-7.773s3.48-7.773,7.773-7.773h18.352
		c4.293,0,7.773,3.48,7.773,7.773C74.324,450.854,70.845,454.334,66.552,454.334z"/>
	<path style="fill:#96ABBC;" d="M114.751,454.334H96.398c-4.293,0-7.773-3.48-7.773-7.773s3.48-7.773,7.773-7.773h18.352
		c4.293,0,7.773,3.48,7.773,7.773C122.524,450.854,119.044,454.334,114.751,454.334z"/>
</g>
<circle style="fill:#FF7B05;" cx="82.45" cy="281.859" r="20.469"/>
<path style="fill:#2E343A;" d="M26.476,35.036L43.49,55.604c3.2,3.869,7.96,6.109,12.981,6.109h55.303
	c4.902,0,9.561-2.135,12.761-5.849l17.949-20.828C142.484,35.036,26.476,35.036,26.476,35.036z"/>
<g>
	<path style="fill:#707D8C;" d="M136.748,116.221H32.211c-3.168,0-5.735-2.568-5.735-5.735v-15.4c0-3.168,2.568-5.735,5.735-5.735
		h104.537c3.168,0,5.735,2.568,5.735,5.735v15.4C142.484,113.653,139.916,116.221,136.748,116.221z"/>
	<path style="fill:#707D8C;" d="M136.748,172.292H32.211c-3.168,0-5.735-2.568-5.735-5.735v-15.4c0-3.168,2.568-5.735,5.735-5.735
		h104.537c3.168,0,5.735,2.568,5.735,5.735v15.4C142.484,169.723,139.916,172.292,136.748,172.292z"/>
</g>
<g>
</g>
<g>
</g>
<g>
</g>
<g>
</g>
<g>
</g>
<g>
</g>
<g>
</g>
<g>
</g>
<g>
</g>
<g>
</g>
<g>
</g>
<g>
</g>
<g>
</g>
<g>
</g>
<g>
</g>
</svg>
